<?xml version="1.0" encoding="UTF-8"?>
<svg version="1.1" xmlns="http://www.w3.org/2000/svg" width="534" height="85">
<path d="M0 0 C11.66786355 -1.68788841 11.66786355 -1.68788841 17 0 C21.39626636 3.57752849 23.7283914 8.92609361 26 14 C28.87500323 10.58106999 28.87500323 10.58106999 31.00830078 6.68383789 C32.40113913 3.79588985 33.51814908 2.05745118 36 0 C41.65528285 -1.14450313 47.13977712 -0.84998438 52.875 -0.5625 C54.43738511 -0.51731909 55.99989521 -0.47626071 57.5625 -0.43945312 C61.3805946 -0.3482566 65.18128872 -0.17241673 69 0 C72.63 8.25 76.26 16.5 80 25 C82.38714808 21.81713589 83.76376304 19.5759835 85.26171875 16.015625 C85.65810547 15.08105469 86.05449219 14.14648438 86.46289062 13.18359375 C86.86701172 12.21550781 87.27113281 11.24742188 87.6875 10.25 C88.10322266 9.26644531 88.51894531 8.28289063 88.94726562 7.26953125 C89.96977006 4.84842879 90.98554408 2.42448584 92 0 C97.61 0 103.22 0 109 0 C103.29573728 13.0326558 97.26947095 25.85624932 91 38.625 C90.12079749 40.42173006 89.24188988 42.21860445 88.36328125 44.015625 C86.24556511 48.34541249 84.12393185 52.6732584 82 57 C81.01 57 80.02 57 79 57 C78.75023407 56.48794006 78.50046814 55.97588013 78.24313354 55.44830322 C75.61526853 50.06105692 72.98657354 44.67421615 70.35742188 39.28759766 C69.37967501 37.28411833 68.40213141 35.28053978 67.42480469 33.27685547 C59.78342885 17.60330979 59.78342885 17.60330979 52 2 C50.89591797 3.61068359 50.89591797 3.61068359 49.76953125 5.25390625 C48.78388888 6.69012799 47.79820984 8.12632456 46.8125 9.5625 C46.32974609 10.26697266 45.84699219 10.97144531 45.34960938 11.69726562 C44.86943359 12.39658203 44.38925781 13.09589844 43.89453125 13.81640625 C43.41838379 14.51781738 42.94223633 15.21922852 42.45166016 15.94189453 C41.49525056 17.29785364 40.49481976 18.62395253 39.45068359 19.91357422 C37.81165841 21.88877683 37.81165841 21.88877683 36 25 C37.04049942 28.71832722 38.94277541 31.57981493 41.1875 34.6875 C42.11175781 35.98300781 42.11175781 35.98300781 43.0546875 37.3046875 C43.69664062 38.19414063 44.33859375 39.08359375 45 40 C46.27560248 41.76740102 47.54660725 43.5381315 48.8125 45.3125 C49.37582031 46.09238281 49.93914062 46.87226562 50.51953125 47.67578125 C52.02990147 50.04694295 53.04302448 52.36248209 54 55 C43.03071148 56.18515722 43.03071148 56.18515722 38 55 C34.53471295 52.19344962 32.99102881 48.92334094 31 45 C29.39251014 42.61842031 27.70303434 40.31555425 26 38 C25.63370483 38.7724707 25.63370483 38.7724707 25.26000977 39.56054688 C18.19763244 53.82406425 18.19763244 53.82406425 12.81054688 55.80517578 C7.78909551 56.50400497 2.96147924 55.88992535 -2 55 C0.2499457 50.81908824 2.6908583 46.95608497 5.48828125 43.1171875 C6.11154297 42.25996094 6.73480469 41.40273437 7.37695312 40.51953125 C8.67787078 38.74209179 9.98794406 36.97132067 11.30664062 35.20703125 C11.92345703 34.35238281 12.54027344 33.49773438 13.17578125 32.6171875 C13.74208252 31.85003418 14.30838379 31.08288086 14.8918457 30.29248047 C16.19794053 28.05449522 16.19794053 28.05449522 15.88769531 25.54052734 C14.84359855 22.55238904 13.43828662 20.32707578 11.62109375 17.734375 C10.94755859 16.76242188 10.27402344 15.79046875 9.58007812 14.7890625 C8.87302734 13.78617188 8.16597656 12.78328125 7.4375 11.75 C6.03854664 9.74605955 4.64131053 7.74091879 3.24609375 5.734375 C2.62404053 4.84975586 2.0019873 3.96513672 1.36108398 3.05371094 C0 1 0 1 0 0 Z " fill="#F2F2F2" transform="translate(248,27)"/>
<path d="M0 0 C2.07278248 1.54156687 3.87400123 3.19544935 5.5546875 5.15625 C5.8846875 2.84625 6.2146875 0.53625 6.5546875 -1.84375 C10.5146875 -1.84375 14.4746875 -1.84375 18.5546875 -1.84375 C18.5546875 16.30625 18.5546875 34.45625 18.5546875 53.15625 C14.5946875 53.15625 10.6346875 53.15625 6.5546875 53.15625 C6.0596875 49.69125 6.0596875 49.69125 5.5546875 46.15625 C5.09578125 46.56617188 4.636875 46.97609375 4.1640625 47.3984375 C3.55046875 47.93726563 2.936875 48.47609375 2.3046875 49.03125 C1.70140625 49.56492188 1.098125 50.09859375 0.4765625 50.6484375 C-4.88474916 54.85466982 -10.50186052 55.41158142 -17.16015625 54.98046875 C-25.01445008 53.8899006 -31.04091906 51.10856084 -36.265625 45.04296875 C-42.1111784 36.86766581 -43.53674019 28.57084028 -42.0859375 18.71484375 C-40.18276931 10.49778649 -35.15817777 4.23468725 -28.125 -0.359375 C-19.56179179 -4.37249568 -8.25522491 -4.96022097 0 0 Z M-25.7578125 16.34375 C-28.09086086 20.23216393 -28.63905762 23.64586359 -28.4453125 28.15625 C-26.62237127 34.23272078 -23.63114533 38.15372651 -18.2578125 41.53125 C-12.90668243 42.72039002 -7.86955417 42.61963966 -3.08984375 39.734375 C0.94788726 36.41005002 3.8068795 33.49773569 4.5546875 28.15625 C4.77389549 22.96197369 4.09141896 19.28870216 0.7421875 15.21875 C-2.15117734 12.07249466 -4.74720405 10.37685019 -9.03125 9.8203125 C-16.61400941 9.71411139 -20.18731904 11.07436429 -25.7578125 16.34375 Z " fill="#F2F2F2" transform="translate(515.4453125,28.84375)"/>
<path d="M0 0 C6.31674725 3.69993289 9.85665091 8.15394291 12.14453125 15.08203125 C13.52424253 20.87681864 13.1010575 24.25404001 12.3125 30.5625 C-8.4775 31.0575 -8.4775 31.0575 -29.6875 31.5625 C-26.58734393 37.97951529 -26.58734393 37.97951529 -21.05078125 40.8671875 C-11.40603429 43.70481553 -2.61211088 40.5978957 6.00390625 36.18359375 C8.1324708 35.01438224 10.23249652 33.8156379 12.3125 32.5625 C13.51529337 42.88647645 13.51529337 42.88647645 10.8828125 46.5546875 C8.77358624 48.18954962 6.70936305 49.38940118 4.3125 50.5625 C3.53003906 50.96082031 2.74757812 51.35914063 1.94140625 51.76953125 C-7.51650878 56.05207518 -17.77217694 56.77471265 -27.6875 53.5625 C-34.89568654 49.94721389 -40.48971926 45.10199929 -43.5 37.5 C-46.04247661 28.82051088 -45.71716036 19.90480159 -41.86328125 11.70703125 C-33.64389501 -3.28447388 -14.95267513 -6.63118636 0 0 Z M-27.6875 13.5625 C-29.9648501 16.37759993 -29.9648501 16.37759993 -29.6875 19.5625 C-20.1175 19.5625 -10.5475 19.5625 -0.6875 19.5625 C-2.67628954 14.59052615 -3.48878862 13.42991265 -7.6875 10.5625 C-14.84517164 8.17660945 -21.53528769 9.15120148 -27.6875 13.5625 Z " fill="#F2F2F2" transform="translate(230.6875,28.4375)"/>
<path d="M0 0 C4.929375 -0.061875 9.85875 -0.12375 14.9375 -0.1875 C16.47398193 -0.21481201 18.01046387 -0.24212402 19.59350586 -0.27026367 C28.16549223 -0.3222151 35.16825381 0.14487725 42.75 4.625 C49.77683553 12.04221528 51.17199767 19.85367184 51.09765625 29.8046875 C51.0962413 30.5286673 51.09482635 31.25264709 51.09336853 31.99856567 C51.08781075 34.29075407 51.07526633 36.58284157 51.0625 38.875 C51.05747953 40.43749858 51.05291759 41.99999871 51.04882812 43.5625 C51.03870984 47.3750693 51.01912664 51.1874229 51 55 C46.05 55 41.1 55 36 55 C35.94392578 51.40544922 35.94392578 51.40544922 35.88671875 47.73828125 C35.84045957 45.40819357 35.78924207 43.07826373 35.73754883 40.74829102 C35.7043689 39.13348037 35.67631542 37.51855569 35.65356445 35.90356445 C35.61988975 33.57714408 35.56757037 31.25176217 35.51171875 28.92578125 C35.50532883 28.20787918 35.4989389 27.48997711 35.49235535 26.75032043 C35.36454831 22.3575755 34.78107237 19.44739154 32 16 C26.7995099 13.08534088 26.7995099 13.08534088 15 13 C15 26.86 15 40.72 15 55 C10.05 55 5.1 55 0 55 C0 36.85 0 18.7 0 0 Z " fill="#F2F2F2" transform="translate(129,27)"/>
<path d="M0 0 C3.31584461 1.98537058 5.59256724 3.87912104 7.5 7.3125 C8.09748279 10.34587418 8.31484876 13.21121666 8.5 16.3125 C2.065 17.7975 2.065 17.7975 -4.5 19.3125 C-5.16 17.0025 -5.82 14.6925 -6.5 12.3125 C-9.78696233 11.51296862 -11.21023192 11.21591064 -14.5 12.3125 C-14.5 13.9625 -14.5 15.6125 -14.5 17.3125 C-12.85451172 17.98345703 -12.85451172 17.98345703 -11.17578125 18.66796875 C-9.72108439 19.27800292 -8.26667216 19.88871614 -6.8125 20.5 C-6.09126953 20.79197266 -5.37003906 21.08394531 -4.62695312 21.38476562 C1.24768189 23.87947365 4.91370101 26.93305152 8.5 32.3125 C10.05526927 38.346477 9.66374524 42.82867491 6.5 48.3125 C2.56205462 52.97585637 -0.72048723 55.02994906 -6.8046875 55.6484375 C-18.97247315 55.78156426 -18.97247315 55.78156426 -24.5 51.3125 C-27.7780371 48.09614639 -30.17928551 44.7549033 -31.5 40.3125 C-31.5 39.3225 -31.5 38.3325 -31.5 37.3125 C-29.7097939 36.64192113 -27.91778511 35.9761531 -26.125 35.3125 C-25.12726563 34.94125 -24.12953125 34.57 -23.1015625 34.1875 C-20.5 33.3125 -20.5 33.3125 -18.5 33.3125 C-17.88125 34.7046875 -17.88125 34.7046875 -17.25 36.125 C-15.54263719 39.2348394 -14.64232742 40.74133629 -11.5 42.3125 C-8.8015411 42.09052187 -8.8015411 42.09052187 -6.5 41.3125 C-6.17 39.9925 -5.84 38.6725 -5.5 37.3125 C-10.80859488 33.59486016 -16.35233143 30.96875391 -22.2578125 28.2890625 C-25.97306219 26.02410305 -27.52067498 24.16494235 -29.5 20.3125 C-30.48902526 15.13466187 -30.12551502 10.63570486 -27.875 5.875 C-20.64191295 -1.92912023 -9.90448882 -4.62582529 0 0 Z " fill="#F2F2F2" transform="translate(419.5,27.6875)"/>
<path d="M0 0 C0 3.3 0 6.6 0 10 C2.64 10 5.28 10 8 10 C8 13.96 8 17.92 8 22 C5.36 22 2.72 22 0 22 C0.13998402 25.68774615 0.28804204 29.37512663 0.4375 33.0625 C0.47681641 34.10083984 0.51613281 35.13917969 0.55664062 36.20898438 C0.77666344 41.54030641 1.1116184 46.73689893 2 52 C3.65 52.66 5.3 53.32 7 54 C7 57.96 7 61.92 7 66 C0.18808359 66.41919486 -3.4792367 66.11350991 -9 62 C-13.24454912 56.52676561 -14.1255268 52.75406706 -14.09765625 45.92578125 C-14.0962413 45.2419487 -14.09482635 44.55811615 -14.09336853 43.8535614 C-14.08777876 41.67316278 -14.07522822 39.49286749 -14.0625 37.3125 C-14.05748367 35.83268378 -14.052921 34.35286594 -14.04882812 32.87304688 C-14.03781271 29.24866443 -14.02055512 25.6243423 -14 22 C-16.64 22 -19.28 22 -22 22 C-22 18.04 -22 14.08 -22 10 C-19.36 10 -16.72 10 -14 10 C-14 7.03 -14 4.06 -14 1 C-9.27616037 0.34843591 -4.78025483 -0.11950637 0 0 Z " fill="#F2F2F2" transform="translate(457,17)"/>
<path d="M0 0 C4.62 0 9.24 0 14 0 C14 18.15 14 36.3 14 55 C9.38 55 4.76 55 0 55 C0 36.85 0 18.7 0 0 Z " fill="#F2F2F2" transform="translate(363,27)"/>
<path d="M0 0 C-1.35557623 3.74582529 -3.05587063 6.77206242 -5.34375 10.02734375 C-6.00890625 10.97859131 -6.6740625 11.92983887 -7.359375 12.90991211 C-8.41898438 14.40856812 -8.41898438 14.40856812 -9.5 15.9375 C-10.57507812 17.4699939 -10.57507812 17.4699939 -11.671875 19.03344727 C-17.07149659 26.71953182 -22.50664186 34.38060662 -28 42 C-31.3213667 38.70807804 -34.58153862 35.37708811 -37.75 31.9375 C-38.91789062 30.68259766 -38.91789062 30.68259766 -40.109375 29.40234375 C-41.89621248 27.13187878 -42.60970441 25.81663315 -43 23 C-33.14152185 17.25500657 -23.14123505 11.79337578 -13.08984375 6.39379883 C-12.08695313 5.85392334 -11.0840625 5.31404785 -10.05078125 4.7578125 C-8.69980347 4.03295654 -8.69980347 4.03295654 -7.3215332 3.29345703 C-1.41034353 0 -1.41034353 0 0 0 Z " fill="#FFB53C" transform="translate(43,42)"/>
<path d="M0 0 C10.64508557 -0.29076106 21.15481879 0.61376385 31.75 1.5 C33.52600563 1.64497343 35.30204714 1.78950796 37.078125 1.93359375 C41.38584668 2.28400862 45.69304054 2.64034274 50 3 C49.22864381 8.09004601 47.87974472 12.52316679 46.0625 17.3125 C45.79759766 18.04017578 45.53269531 18.76785156 45.25976562 19.51757812 C43.24705967 24.87647017 43.24705967 24.87647017 41 26 C38.52225326 24.72528501 36.18541721 23.38906474 33.8125 21.9375 C33.08160156 21.49792969 32.35070312 21.05835937 31.59765625 20.60546875 C29.96998052 19.62455159 28.34462736 18.63977372 26.72119141 17.65185547 C23.75279839 15.84994024 20.77336155 14.06714738 17.79296875 12.28515625 C15.69490534 11.02411466 13.59724516 9.76240195 11.5 8.5 C10.4788208 7.88890381 9.4576416 7.27780762 8.40551758 6.64819336 C7.45700928 6.07335205 6.50850098 5.49851074 5.53125 4.90625 C4.68111328 4.39384766 3.83097656 3.88144531 2.95507812 3.35351562 C1 2 1 2 0 0 Z " fill="#FFB53C" transform="translate(43,56)"/>
<path d="M0 0 C0.02483449 5.83495783 0.04292349 11.66988446 0.05493164 17.50488281 C0.05994103 19.48731014 0.0667504 21.46973382 0.07543945 23.45214844 C0.08765429 26.31185818 0.09326239 29.1715188 0.09765625 32.03125 C0.10281754 32.90865845 0.10797882 33.78606689 0.11329651 34.69006348 C0.11376359 39.88625006 -0.24783592 44.85717573 -1 50 C-3.93979097 46.47112015 -5.77705883 42.52145069 -7.6875 38.3828125 C-8.03127686 37.6480368 -8.37505371 36.91326111 -8.72924805 36.15621948 C-9.82384694 33.81447985 -10.91212022 31.46986753 -12 29.125 C-13.08919606 26.78790748 -14.17968782 24.4514248 -15.27075195 22.11520386 C-15.94774787 20.66445017 -16.62344012 19.21308716 -17.29760742 17.76101685 C-17.60802979 17.09367523 -17.91845215 16.42633362 -18.23828125 15.73876953 C-18.5317041 15.10457092 -18.82512695 14.47037231 -19.12744141 13.81695557 C-19.9606577 12.08192367 -20.87519776 10.38665207 -21.79296875 8.69482422 C-23 6 -23 6 -22 3 C-19.27172635 2.49465273 -16.54255306 1.99556155 -13.8125 1.5 C-13.04357422 1.35691406 -12.27464844 1.21382813 -11.48242188 1.06640625 C-10.73154297 0.93105469 -9.98066406 0.79570312 -9.20703125 0.65625 C-8.5210083 0.53056641 -7.83498535 0.40488281 -7.12817383 0.27539062 C-4.73346426 -0.03449034 -2.41205311 -0.04422404 0 0 Z " fill="#FFB53C" transform="translate(56,0)"/>
<path d="M0 0 C2.75 1.0625 2.75 1.0625 5 3 C6.54991142 6.63892246 7.28029855 8.87880579 6.3125 12.75 C5.00550129 14.99056922 4.01508772 16.38154719 2 18 C-2.45727343 18.82597221 -6.62737296 18.75167671 -10.625 16.5625 C-12.67574437 12.74065821 -12.7950864 9.24046082 -12 5 C-8.56737028 0.42316038 -5.60435084 -0.43955693 0 0 Z " fill="#F2F2F2" transform="translate(373,1)"/>
</svg>
